<mxfile host="app.diagrams.net" modified="2021-10-15T09:59:59.720Z" agent="5.0 (Windows)" etag="1RNY-_BEjjk_zzoJZhLZ" version="15.5.2" type="github">
  <diagram id="4HAEJHKkx17o9lUjrkPe" name="Page-1">
    <mxGraphModel dx="2254" dy="909" grid="1" gridSize="10" guides="1" tooltips="1" connect="1" arrows="1" fold="1" page="1" pageScale="1" pageWidth="827" pageHeight="1169" math="0" shadow="0">
      <root>
        <mxCell id="0" />
        <mxCell id="1" parent="0" />
        <mxCell id="JQ5LjAgzly_YhfliwwbK-14" value="Map empty" style="swimlane;fontStyle=1;align=center;verticalAlign=middle;childLayout=stackLayout;horizontal=1;startSize=30;horizontalStack=0;resizeParent=0;resizeLast=1;container=0;fontColor=#000000;collapsible=0;rounded=1;arcSize=30;strokeColor=#ff0000;fillColor=#ffffc0;swimlaneFillColor=#ffffc0;dropTarget=0;" vertex="1" parent="1">
          <mxGeometry x="60" y="110" width="180" height="90" as="geometry" />
        </mxCell>
        <mxCell id="JQ5LjAgzly_YhfliwwbK-15" value="&lt;div&gt;Entry / unlockButton(Load a Map)&lt;br&gt;&lt;/div&gt;&lt;div&gt;Do / incite user to load a map&lt;br&gt;&lt;/div&gt;&lt;div&gt;Exit/ openFileExplorer(File)&lt;/div&gt;&lt;div&gt;&lt;br&gt;&lt;/div&gt;&lt;div&gt;&lt;br&gt;&lt;/div&gt;&lt;div&gt;&lt;br&gt;&lt;/div&gt;" style="text;html=1;strokeColor=none;fillColor=none;align=center;verticalAlign=middle;spacingLeft=4;spacingRight=4;whiteSpace=wrap;overflow=hidden;rotatable=0;fontColor=#000000;" vertex="1" parent="JQ5LjAgzly_YhfliwwbK-14">
          <mxGeometry y="30" width="180" height="60" as="geometry" />
        </mxCell>
        <mxCell id="JQ5LjAgzly_YhfliwwbK-26" value="&lt;div&gt;Entry / unlockButton(Load a Map)&lt;br&gt;&lt;/div&gt;&lt;div&gt;Do / incite user to load a map&lt;br&gt;&lt;/div&gt;&lt;div&gt;Exit/ openFileExplorer()&lt;/div&gt;&lt;div&gt;&lt;br&gt;&lt;/div&gt;&lt;div&gt;&lt;br&gt;&lt;/div&gt;&lt;div&gt;&lt;br&gt;&lt;/div&gt;" style="text;html=1;strokeColor=none;fillColor=none;align=center;verticalAlign=middle;spacingLeft=4;spacingRight=4;whiteSpace=wrap;overflow=hidden;rotatable=0;fontColor=#000000;" vertex="1" parent="JQ5LjAgzly_YhfliwwbK-14">
          <mxGeometry y="90" width="180" as="geometry" />
        </mxCell>
        <mxCell id="JQ5LjAgzly_YhfliwwbK-21" value="File choosing" style="swimlane;fontStyle=1;align=center;verticalAlign=middle;childLayout=stackLayout;horizontal=1;startSize=30;horizontalStack=0;resizeParent=0;resizeLast=1;container=0;fontColor=#000000;collapsible=0;rounded=1;arcSize=30;strokeColor=#ff0000;fillColor=#ffffc0;swimlaneFillColor=#ffffc0;dropTarget=0;" vertex="1" parent="1">
          <mxGeometry x="400" y="110" width="180" height="90" as="geometry" />
        </mxCell>
        <mxCell id="JQ5LjAgzly_YhfliwwbK-22" value="&lt;div&gt;Entry /&lt;br&gt;&lt;/div&gt;&lt;div&gt;Do /&lt;/div&gt;&lt;div&gt;Exit/&lt;/div&gt;&lt;div&gt;&lt;br&gt;&lt;/div&gt;&lt;div&gt;&lt;br&gt;&lt;/div&gt;" style="text;html=1;strokeColor=none;fillColor=none;align=center;verticalAlign=middle;spacingLeft=4;spacingRight=4;whiteSpace=wrap;overflow=hidden;rotatable=0;fontColor=#000000;" vertex="1" parent="JQ5LjAgzly_YhfliwwbK-21">
          <mxGeometry y="30" width="180" height="60" as="geometry" />
        </mxCell>
        <mxCell id="JQ5LjAgzly_YhfliwwbK-43" value="&lt;div&gt;Entry /&lt;br&gt;&lt;/div&gt;&lt;div&gt;Do /&lt;/div&gt;&lt;div&gt;Exit/&lt;/div&gt;&lt;div&gt;&lt;br&gt;&lt;/div&gt;&lt;div&gt;&lt;br&gt;&lt;/div&gt;" style="text;html=1;strokeColor=none;fillColor=none;align=center;verticalAlign=middle;spacingLeft=4;spacingRight=4;whiteSpace=wrap;overflow=hidden;rotatable=0;fontColor=#000000;" vertex="1" parent="JQ5LjAgzly_YhfliwwbK-21">
          <mxGeometry y="90" width="180" as="geometry" />
        </mxCell>
        <mxCell id="JQ5LjAgzly_YhfliwwbK-80" style="edgeStyle=none;rounded=0;orthogonalLoop=1;jettySize=auto;html=1;exitX=0;exitY=0.75;exitDx=0;exitDy=0;entryX=0.984;entryY=0.083;entryDx=0;entryDy=0;entryPerimeter=0;" edge="1" parent="1" source="JQ5LjAgzly_YhfliwwbK-35" target="JQ5LjAgzly_YhfliwwbK-85">
          <mxGeometry relative="1" as="geometry">
            <mxPoint x="590" y="280" as="targetPoint" />
            <Array as="points" />
          </mxGeometry>
        </mxCell>
        <mxCell id="JQ5LjAgzly_YhfliwwbK-34" value="Map displayed" style="swimlane;fontStyle=1;align=center;verticalAlign=middle;childLayout=stackLayout;horizontal=1;startSize=30;horizontalStack=0;resizeParent=0;resizeLast=1;container=0;fontColor=#000000;collapsible=0;rounded=1;arcSize=30;strokeColor=#ff0000;fillColor=#ffffc0;swimlaneFillColor=#ffffc0;dropTarget=0;" vertex="1" parent="1">
          <mxGeometry x="760" y="110" width="180" height="90" as="geometry" />
        </mxCell>
        <mxCell id="JQ5LjAgzly_YhfliwwbK-35" value="&lt;div&gt;Entry /&lt;br&gt;&lt;/div&gt;&lt;div&gt;Do /&lt;/div&gt;&lt;div&gt;Exit/&lt;/div&gt;&lt;div&gt;&lt;br&gt;&lt;/div&gt;&lt;div&gt;&lt;br&gt;&lt;/div&gt;" style="text;html=1;strokeColor=none;fillColor=none;align=center;verticalAlign=middle;spacingLeft=4;spacingRight=4;whiteSpace=wrap;overflow=hidden;rotatable=0;fontColor=#000000;" vertex="1" parent="JQ5LjAgzly_YhfliwwbK-34">
          <mxGeometry y="30" width="180" height="60" as="geometry" />
        </mxCell>
        <mxCell id="JQ5LjAgzly_YhfliwwbK-36" value="&lt;div&gt;Entry /&lt;br&gt;&lt;/div&gt;&lt;div&gt;Do /&lt;/div&gt;&lt;div&gt;Exit/&lt;/div&gt;&lt;div&gt;&lt;br&gt;&lt;/div&gt;&lt;div&gt;&lt;br&gt;&lt;/div&gt;" style="text;html=1;strokeColor=none;fillColor=none;align=center;verticalAlign=middle;spacingLeft=4;spacingRight=4;whiteSpace=wrap;overflow=hidden;rotatable=0;fontColor=#000000;" vertex="1" parent="JQ5LjAgzly_YhfliwwbK-34">
          <mxGeometry y="90" width="180" as="geometry" />
        </mxCell>
        <mxCell id="JQ5LjAgzly_YhfliwwbK-39" value="" style="endArrow=classic;html=1;rounded=0;exitX=1;exitY=0.25;exitDx=0;exitDy=0;entryX=0;entryY=0.25;entryDx=0;entryDy=0;" edge="1" parent="1" source="JQ5LjAgzly_YhfliwwbK-15" target="JQ5LjAgzly_YhfliwwbK-22">
          <mxGeometry width="50" height="50" relative="1" as="geometry">
            <mxPoint x="420" y="380" as="sourcePoint" />
            <mxPoint x="470" y="330" as="targetPoint" />
          </mxGeometry>
        </mxCell>
        <mxCell id="JQ5LjAgzly_YhfliwwbK-45" value="&lt;div&gt;Left click on &quot;load a map&quot;&lt;/div&gt;" style="text;html=1;align=center;verticalAlign=middle;resizable=0;points=[];autosize=1;strokeColor=none;fillColor=none;" vertex="1" parent="1">
          <mxGeometry x="260" y="130" width="130" height="20" as="geometry" />
        </mxCell>
        <mxCell id="JQ5LjAgzly_YhfliwwbK-113" style="edgeStyle=none;rounded=0;orthogonalLoop=1;jettySize=auto;html=1;exitX=1;exitY=0.25;exitDx=0;exitDy=0;entryX=1;entryY=0;entryDx=0;entryDy=0;" edge="1" parent="1" source="JQ5LjAgzly_YhfliwwbK-46" target="JQ5LjAgzly_YhfliwwbK-21">
          <mxGeometry relative="1" as="geometry">
            <mxPoint x="1320" y="480" as="targetPoint" />
            <Array as="points">
              <mxPoint x="1120" y="640" />
              <mxPoint x="1120" y="90" />
              <mxPoint x="600" y="80" />
            </Array>
          </mxGeometry>
        </mxCell>
        <mxCell id="JQ5LjAgzly_YhfliwwbK-46" value="Request loaded" style="swimlane;fontStyle=1;align=center;verticalAlign=middle;childLayout=stackLayout;horizontal=1;startSize=30;horizontalStack=0;resizeParent=0;resizeLast=1;container=0;fontColor=#000000;collapsible=0;rounded=1;arcSize=30;strokeColor=#ff0000;fillColor=#ffffc0;swimlaneFillColor=#ffffc0;dropTarget=0;" vertex="1" parent="1">
          <mxGeometry x="760" y="740" width="180" height="90" as="geometry" />
        </mxCell>
        <mxCell id="JQ5LjAgzly_YhfliwwbK-47" value="&lt;div&gt;Entry /&lt;br&gt;&lt;/div&gt;&lt;div&gt;Do /&lt;/div&gt;&lt;div&gt;Exit/&lt;/div&gt;&lt;div&gt;&lt;br&gt;&lt;/div&gt;&lt;div&gt;&lt;br&gt;&lt;/div&gt;" style="text;html=1;strokeColor=none;fillColor=none;align=center;verticalAlign=middle;spacingLeft=4;spacingRight=4;whiteSpace=wrap;overflow=hidden;rotatable=0;fontColor=#000000;" vertex="1" parent="JQ5LjAgzly_YhfliwwbK-46">
          <mxGeometry y="30" width="180" height="60" as="geometry" />
        </mxCell>
        <mxCell id="JQ5LjAgzly_YhfliwwbK-96" value="&lt;div&gt;Entry /&lt;br&gt;&lt;/div&gt;&lt;div&gt;Do /&lt;/div&gt;&lt;div&gt;Exit/&lt;/div&gt;&lt;div&gt;&lt;br&gt;&lt;/div&gt;&lt;div&gt;&lt;br&gt;&lt;/div&gt;" style="text;html=1;strokeColor=none;fillColor=none;align=center;verticalAlign=middle;spacingLeft=4;spacingRight=4;whiteSpace=wrap;overflow=hidden;rotatable=0;fontColor=#000000;" vertex="1" parent="JQ5LjAgzly_YhfliwwbK-46">
          <mxGeometry y="90" width="180" as="geometry" />
        </mxCell>
        <mxCell id="JQ5LjAgzly_YhfliwwbK-55" style="edgeStyle=none;rounded=0;orthogonalLoop=1;jettySize=auto;html=1;exitX=0;exitY=0;exitDx=0;exitDy=0;entryX=0.5;entryY=0;entryDx=0;entryDy=0;" edge="1" parent="1" source="JQ5LjAgzly_YhfliwwbK-51" target="JQ5LjAgzly_YhfliwwbK-46">
          <mxGeometry relative="1" as="geometry">
            <mxPoint x="610" y="580" as="sourcePoint" />
            <mxPoint x="370" y="575" as="targetPoint" />
          </mxGeometry>
        </mxCell>
        <mxCell id="JQ5LjAgzly_YhfliwwbK-49" value="File choosing" style="swimlane;fontStyle=1;align=center;verticalAlign=middle;childLayout=stackLayout;horizontal=1;startSize=30;horizontalStack=0;resizeParent=0;resizeLast=1;container=0;fontColor=#000000;collapsible=0;rounded=1;arcSize=30;strokeColor=#ff0000;fillColor=#ffffc0;swimlaneFillColor=#ffffc0;dropTarget=0;" vertex="1" parent="1">
          <mxGeometry x="760" y="530" width="180" height="90" as="geometry" />
        </mxCell>
        <mxCell id="JQ5LjAgzly_YhfliwwbK-50" value="&lt;div&gt;Entry /&lt;br&gt;&lt;/div&gt;&lt;div&gt;Do /&lt;/div&gt;&lt;div&gt;Exit/&lt;/div&gt;&lt;div&gt;&lt;br&gt;&lt;/div&gt;&lt;div&gt;&lt;br&gt;&lt;/div&gt;" style="text;html=1;strokeColor=none;fillColor=none;align=center;verticalAlign=middle;spacingLeft=4;spacingRight=4;whiteSpace=wrap;overflow=hidden;rotatable=0;fontColor=#000000;" vertex="1" parent="JQ5LjAgzly_YhfliwwbK-49">
          <mxGeometry y="30" width="180" height="60" as="geometry" />
        </mxCell>
        <mxCell id="JQ5LjAgzly_YhfliwwbK-51" value="&lt;div&gt;Entry /&lt;br&gt;&lt;/div&gt;&lt;div&gt;Do /&lt;/div&gt;&lt;div&gt;Exit/&lt;/div&gt;&lt;div&gt;&lt;br&gt;&lt;/div&gt;&lt;div&gt;&lt;br&gt;&lt;/div&gt;" style="text;html=1;strokeColor=none;fillColor=none;align=center;verticalAlign=middle;spacingLeft=4;spacingRight=4;whiteSpace=wrap;overflow=hidden;rotatable=0;fontColor=#000000;" vertex="1" parent="JQ5LjAgzly_YhfliwwbK-49">
          <mxGeometry y="90" width="180" as="geometry" />
        </mxCell>
        <mxCell id="JQ5LjAgzly_YhfliwwbK-52" value="" style="endArrow=classic;html=1;rounded=0;exitX=0.5;exitY=1;exitDx=0;exitDy=0;entryX=0.5;entryY=0;entryDx=0;entryDy=0;" edge="1" parent="1" source="JQ5LjAgzly_YhfliwwbK-35" target="JQ5LjAgzly_YhfliwwbK-49">
          <mxGeometry width="50" height="50" relative="1" as="geometry">
            <mxPoint x="670" y="510" as="sourcePoint" />
            <mxPoint x="850" y="360" as="targetPoint" />
          </mxGeometry>
        </mxCell>
        <mxCell id="JQ5LjAgzly_YhfliwwbK-53" value="&lt;div&gt;Left click on &quot;Load a request&quot;&lt;/div&gt;" style="text;html=1;align=center;verticalAlign=middle;resizable=0;points=[];autosize=1;strokeColor=none;fillColor=none;rotation=-90;" vertex="1" parent="1">
          <mxGeometry x="760" y="365" width="140" height="20" as="geometry" />
        </mxCell>
        <mxCell id="JQ5LjAgzly_YhfliwwbK-56" value="Selecte file and Left click OK" style="text;html=1;align=center;verticalAlign=middle;resizable=0;points=[];autosize=1;strokeColor=none;fillColor=none;" vertex="1" parent="1">
          <mxGeometry x="850" y="670" width="140" height="20" as="geometry" />
        </mxCell>
        <mxCell id="JQ5LjAgzly_YhfliwwbK-58" value="Error / left click on Cancel" style="text;html=1;align=center;verticalAlign=middle;resizable=0;points=[];autosize=1;strokeColor=none;fillColor=none;" vertex="1" parent="1">
          <mxGeometry x="245" y="30" width="130" height="20" as="geometry" />
        </mxCell>
        <mxCell id="JQ5LjAgzly_YhfliwwbK-59" style="edgeStyle=none;rounded=0;orthogonalLoop=1;jettySize=auto;html=1;entryX=0.5;entryY=0;entryDx=0;entryDy=0;exitX=0.553;exitY=-0.009;exitDx=0;exitDy=0;exitPerimeter=0;" edge="1" parent="1" source="JQ5LjAgzly_YhfliwwbK-21" target="JQ5LjAgzly_YhfliwwbK-14">
          <mxGeometry relative="1" as="geometry">
            <Array as="points">
              <mxPoint x="500" y="60" />
              <mxPoint x="150" y="60" />
            </Array>
          </mxGeometry>
        </mxCell>
        <mxCell id="JQ5LjAgzly_YhfliwwbK-61" value="" style="endArrow=classic;html=1;rounded=0;exitX=1;exitY=0.25;exitDx=0;exitDy=0;entryX=1;entryY=0.25;entryDx=0;entryDy=0;" edge="1" parent="1" source="JQ5LjAgzly_YhfliwwbK-50" target="JQ5LjAgzly_YhfliwwbK-35">
          <mxGeometry width="50" height="50" relative="1" as="geometry">
            <mxPoint x="890" y="570" as="sourcePoint" />
            <mxPoint x="940" y="520" as="targetPoint" />
            <Array as="points">
              <mxPoint x="1030" y="575" />
              <mxPoint x="1030" y="155" />
            </Array>
          </mxGeometry>
        </mxCell>
        <mxCell id="JQ5LjAgzly_YhfliwwbK-62" value="Error /Left click on Cancel" style="text;html=1;align=center;verticalAlign=middle;resizable=0;points=[];autosize=1;strokeColor=none;fillColor=none;rotation=-90;" vertex="1" parent="1">
          <mxGeometry x="950" y="365" width="130" height="20" as="geometry" />
        </mxCell>
        <mxCell id="JQ5LjAgzly_YhfliwwbK-67" style="edgeStyle=none;rounded=0;orthogonalLoop=1;jettySize=auto;html=1;exitX=0.5;exitY=1;exitDx=0;exitDy=0;entryX=0.75;entryY=1;entryDx=0;entryDy=0;" edge="1" parent="1" source="JQ5LjAgzly_YhfliwwbK-65" target="JQ5LjAgzly_YhfliwwbK-47">
          <mxGeometry relative="1" as="geometry">
            <mxPoint x="880" y="835" as="targetPoint" />
            <Array as="points">
              <mxPoint x="465" y="870" />
              <mxPoint x="895" y="870" />
            </Array>
          </mxGeometry>
        </mxCell>
        <mxCell id="JQ5LjAgzly_YhfliwwbK-64" value="Tour computing" style="swimlane;fontStyle=1;align=center;verticalAlign=middle;childLayout=stackLayout;horizontal=1;startSize=30;horizontalStack=0;resizeParent=0;resizeLast=1;container=0;fontColor=#000000;collapsible=0;rounded=1;arcSize=30;strokeColor=#ff0000;fillColor=#ffffc0;swimlaneFillColor=#ffffc0;dropTarget=0;" vertex="1" parent="1">
          <mxGeometry x="375" y="740" width="180" height="90" as="geometry" />
        </mxCell>
        <mxCell id="JQ5LjAgzly_YhfliwwbK-65" value="&lt;div&gt;Entry /&lt;br&gt;&lt;/div&gt;&lt;div&gt;Do /&lt;/div&gt;&lt;div&gt;Exit/&lt;/div&gt;&lt;div&gt;&lt;br&gt;&lt;/div&gt;&lt;div&gt;&lt;br&gt;&lt;/div&gt;" style="text;html=1;strokeColor=none;fillColor=none;align=center;verticalAlign=middle;spacingLeft=4;spacingRight=4;whiteSpace=wrap;overflow=hidden;rotatable=0;fontColor=#000000;" vertex="1" parent="JQ5LjAgzly_YhfliwwbK-64">
          <mxGeometry y="30" width="180" height="60" as="geometry" />
        </mxCell>
        <mxCell id="JQ5LjAgzly_YhfliwwbK-66" value="" style="endArrow=classic;html=1;rounded=0;exitX=0;exitY=0;exitDx=0;exitDy=0;entryX=1;entryY=0;entryDx=0;entryDy=0;" edge="1" parent="1" source="JQ5LjAgzly_YhfliwwbK-47" target="JQ5LjAgzly_YhfliwwbK-65">
          <mxGeometry width="50" height="50" relative="1" as="geometry">
            <mxPoint x="620" y="710" as="sourcePoint" />
            <mxPoint x="670" y="660" as="targetPoint" />
            <Array as="points" />
          </mxGeometry>
        </mxCell>
        <mxCell id="JQ5LjAgzly_YhfliwwbK-68" value="Error / Timeout/ Left click on cancel" style="text;html=1;align=center;verticalAlign=middle;resizable=0;points=[];autosize=1;strokeColor=none;fillColor=none;rotation=0;" vertex="1" parent="1">
          <mxGeometry x="610" y="850" width="170" height="20" as="geometry" />
        </mxCell>
        <mxCell id="JQ5LjAgzly_YhfliwwbK-107" style="edgeStyle=none;rounded=0;orthogonalLoop=1;jettySize=auto;html=1;entryX=0.25;entryY=1;entryDx=0;entryDy=0;exitX=0.25;exitY=0;exitDx=0;exitDy=0;" edge="1" parent="1" source="JQ5LjAgzly_YhfliwwbK-69" target="JQ5LjAgzly_YhfliwwbK-21">
          <mxGeometry relative="1" as="geometry">
            <mxPoint x="50" y="580" as="sourcePoint" />
            <Array as="points">
              <mxPoint x="65" y="340" />
            </Array>
          </mxGeometry>
        </mxCell>
        <mxCell id="JQ5LjAgzly_YhfliwwbK-122" style="edgeStyle=none;rounded=0;orthogonalLoop=1;jettySize=auto;html=1;exitX=0.75;exitY=0;exitDx=0;exitDy=0;entryX=0;entryY=0;entryDx=0;entryDy=0;" edge="1" parent="1" source="JQ5LjAgzly_YhfliwwbK-69" target="JQ5LjAgzly_YhfliwwbK-50">
          <mxGeometry relative="1" as="geometry" />
        </mxCell>
        <mxCell id="JQ5LjAgzly_YhfliwwbK-69" value="Tour computed " style="swimlane;fontStyle=1;align=center;verticalAlign=middle;childLayout=stackLayout;horizontal=1;startSize=30;horizontalStack=0;resizeParent=0;resizeLast=1;container=0;fontColor=#000000;collapsible=0;rounded=1;arcSize=30;strokeColor=#ff0000;fillColor=#ffffc0;swimlaneFillColor=#ffffc0;dropTarget=0;" vertex="1" parent="1">
          <mxGeometry x="20" y="740" width="180" height="90" as="geometry" />
        </mxCell>
        <mxCell id="JQ5LjAgzly_YhfliwwbK-70" value="&lt;div&gt;Entry /&lt;br&gt;&lt;/div&gt;&lt;div&gt;Do /&lt;/div&gt;&lt;div&gt;Exit/&lt;/div&gt;&lt;div&gt;&lt;br&gt;&lt;/div&gt;&lt;div&gt;&lt;br&gt;&lt;/div&gt;" style="text;html=1;strokeColor=none;fillColor=none;align=center;verticalAlign=middle;spacingLeft=4;spacingRight=4;whiteSpace=wrap;overflow=hidden;rotatable=0;fontColor=#000000;" vertex="1" parent="JQ5LjAgzly_YhfliwwbK-69">
          <mxGeometry y="30" width="180" height="60" as="geometry" />
        </mxCell>
        <mxCell id="JQ5LjAgzly_YhfliwwbK-71" value="&lt;div&gt;Entry /&lt;br&gt;&lt;/div&gt;&lt;div&gt;Do /&lt;/div&gt;&lt;div&gt;Exit/&lt;/div&gt;&lt;div&gt;&lt;br&gt;&lt;/div&gt;&lt;div&gt;&lt;br&gt;&lt;/div&gt;" style="text;html=1;strokeColor=none;fillColor=none;align=center;verticalAlign=middle;spacingLeft=4;spacingRight=4;whiteSpace=wrap;overflow=hidden;rotatable=0;fontColor=#000000;" vertex="1" parent="JQ5LjAgzly_YhfliwwbK-69">
          <mxGeometry y="90" width="180" as="geometry" />
        </mxCell>
        <mxCell id="JQ5LjAgzly_YhfliwwbK-76" value="Left click on &quot;Compute Tour&quot;" style="text;html=1;align=center;verticalAlign=middle;resizable=0;points=[];autosize=1;strokeColor=none;fillColor=none;rotation=0;" vertex="1" parent="1">
          <mxGeometry x="590" y="750" width="140" height="20" as="geometry" />
        </mxCell>
        <mxCell id="JQ5LjAgzly_YhfliwwbK-77" style="edgeStyle=none;rounded=0;orthogonalLoop=1;jettySize=auto;html=1;exitX=0;exitY=0;exitDx=0;exitDy=0;entryX=1;entryY=0;entryDx=0;entryDy=0;" edge="1" parent="1" source="JQ5LjAgzly_YhfliwwbK-65" target="JQ5LjAgzly_YhfliwwbK-70">
          <mxGeometry relative="1" as="geometry" />
        </mxCell>
        <mxCell id="JQ5LjAgzly_YhfliwwbK-78" style="edgeStyle=none;rounded=0;orthogonalLoop=1;jettySize=auto;html=1;exitX=1;exitY=0.25;exitDx=0;exitDy=0;entryX=0;entryY=0.25;entryDx=0;entryDy=0;" edge="1" parent="1" source="JQ5LjAgzly_YhfliwwbK-22" target="JQ5LjAgzly_YhfliwwbK-35">
          <mxGeometry relative="1" as="geometry" />
        </mxCell>
        <mxCell id="JQ5LjAgzly_YhfliwwbK-79" value="Select file and&amp;nbsp; left click on OK" style="text;html=1;align=center;verticalAlign=middle;resizable=0;points=[];autosize=1;strokeColor=none;fillColor=none;" vertex="1" parent="1">
          <mxGeometry x="600" y="130" width="150" height="20" as="geometry" />
        </mxCell>
        <mxCell id="JQ5LjAgzly_YhfliwwbK-81" value="Left click on &quot;Load a map&quot;" style="text;html=1;align=center;verticalAlign=middle;resizable=0;points=[];autosize=1;strokeColor=none;fillColor=none;rotation=-45;" vertex="1" parent="1">
          <mxGeometry x="580" y="270" width="130" height="20" as="geometry" />
        </mxCell>
        <mxCell id="JQ5LjAgzly_YhfliwwbK-90" style="edgeStyle=none;rounded=0;orthogonalLoop=1;jettySize=auto;html=1;exitX=0.5;exitY=0;exitDx=0;exitDy=0;" edge="1" parent="1" source="JQ5LjAgzly_YhfliwwbK-85" target="JQ5LjAgzly_YhfliwwbK-22">
          <mxGeometry relative="1" as="geometry" />
        </mxCell>
        <mxCell id="JQ5LjAgzly_YhfliwwbK-92" style="edgeStyle=none;rounded=0;orthogonalLoop=1;jettySize=auto;html=1;exitX=1;exitY=0.5;exitDx=0;exitDy=0;entryX=0.25;entryY=1;entryDx=0;entryDy=0;" edge="1" parent="1" source="JQ5LjAgzly_YhfliwwbK-86" target="JQ5LjAgzly_YhfliwwbK-35">
          <mxGeometry relative="1" as="geometry" />
        </mxCell>
        <mxCell id="JQ5LjAgzly_YhfliwwbK-85" value="Validating Map overwrite" style="swimlane;fontStyle=1;align=center;verticalAlign=middle;childLayout=stackLayout;horizontal=1;startSize=30;horizontalStack=0;resizeParent=0;resizeLast=1;container=0;fontColor=#000000;collapsible=0;rounded=1;arcSize=30;strokeColor=#ff0000;fillColor=#ffffc0;swimlaneFillColor=#ffffc0;dropTarget=0;" vertex="1" parent="1">
          <mxGeometry x="400" y="360" width="180" height="90" as="geometry" />
        </mxCell>
        <mxCell id="JQ5LjAgzly_YhfliwwbK-86" value="&lt;div&gt;Entry /&lt;br&gt;&lt;/div&gt;&lt;div&gt;Do /&lt;/div&gt;&lt;div&gt;Exit/&lt;/div&gt;&lt;div&gt;&lt;br&gt;&lt;/div&gt;&lt;div&gt;&lt;br&gt;&lt;/div&gt;" style="text;html=1;strokeColor=none;fillColor=none;align=center;verticalAlign=middle;spacingLeft=4;spacingRight=4;whiteSpace=wrap;overflow=hidden;rotatable=0;fontColor=#000000;" vertex="1" parent="JQ5LjAgzly_YhfliwwbK-85">
          <mxGeometry y="30" width="180" height="60" as="geometry" />
        </mxCell>
        <mxCell id="JQ5LjAgzly_YhfliwwbK-87" value="&lt;div&gt;Entry /&lt;br&gt;&lt;/div&gt;&lt;div&gt;Do /&lt;/div&gt;&lt;div&gt;Exit/&lt;/div&gt;&lt;div&gt;&lt;br&gt;&lt;/div&gt;&lt;div&gt;&lt;br&gt;&lt;/div&gt;" style="text;html=1;strokeColor=none;fillColor=none;align=center;verticalAlign=middle;spacingLeft=4;spacingRight=4;whiteSpace=wrap;overflow=hidden;rotatable=0;fontColor=#000000;" vertex="1" parent="JQ5LjAgzly_YhfliwwbK-85">
          <mxGeometry y="90" width="180" as="geometry" />
        </mxCell>
        <mxCell id="JQ5LjAgzly_YhfliwwbK-91" value="Click on YES" style="text;html=1;align=center;verticalAlign=middle;resizable=0;points=[];autosize=1;strokeColor=none;fillColor=none;rotation=-90;" vertex="1" parent="1">
          <mxGeometry x="440" y="280" width="70" height="20" as="geometry" />
        </mxCell>
        <mxCell id="JQ5LjAgzly_YhfliwwbK-93" value="Click on NO" style="text;html=1;align=center;verticalAlign=middle;resizable=0;points=[];autosize=1;strokeColor=none;fillColor=none;rotation=-45;" vertex="1" parent="1">
          <mxGeometry x="640" y="300" width="70" height="20" as="geometry" />
        </mxCell>
        <mxCell id="JQ5LjAgzly_YhfliwwbK-124" style="edgeStyle=none;rounded=0;orthogonalLoop=1;jettySize=auto;html=1;exitX=0.75;exitY=0;exitDx=0;exitDy=0;entryX=0.75;entryY=1;entryDx=0;entryDy=0;" edge="1" parent="1" source="JQ5LjAgzly_YhfliwwbK-99" target="JQ5LjAgzly_YhfliwwbK-70">
          <mxGeometry relative="1" as="geometry" />
        </mxCell>
        <mxCell id="JQ5LjAgzly_YhfliwwbK-99" value="Modify request" style="swimlane;fontStyle=1;align=center;verticalAlign=middle;childLayout=stackLayout;horizontal=1;startSize=30;horizontalStack=0;resizeParent=0;resizeLast=1;container=0;fontColor=#000000;collapsible=0;rounded=1;arcSize=30;strokeColor=#ff0000;fillColor=#ffffc0;swimlaneFillColor=#ffffc0;dropTarget=0;" vertex="1" parent="1">
          <mxGeometry x="20" y="1000" width="180" height="90" as="geometry" />
        </mxCell>
        <mxCell id="JQ5LjAgzly_YhfliwwbK-100" value="&lt;div&gt;Entry /&lt;br&gt;&lt;/div&gt;&lt;div&gt;Do /&lt;/div&gt;&lt;div&gt;Exit/&lt;/div&gt;&lt;div&gt;&lt;br&gt;&lt;/div&gt;&lt;div&gt;&lt;br&gt;&lt;/div&gt;" style="text;html=1;strokeColor=none;fillColor=none;align=center;verticalAlign=middle;spacingLeft=4;spacingRight=4;whiteSpace=wrap;overflow=hidden;rotatable=0;fontColor=#000000;" vertex="1" parent="JQ5LjAgzly_YhfliwwbK-99">
          <mxGeometry y="30" width="180" height="60" as="geometry" />
        </mxCell>
        <mxCell id="JQ5LjAgzly_YhfliwwbK-101" value="&lt;div&gt;Entry /&lt;br&gt;&lt;/div&gt;&lt;div&gt;Do /&lt;/div&gt;&lt;div&gt;Exit/&lt;/div&gt;&lt;div&gt;&lt;br&gt;&lt;/div&gt;&lt;div&gt;&lt;br&gt;&lt;/div&gt;" style="text;html=1;strokeColor=none;fillColor=none;align=center;verticalAlign=middle;spacingLeft=4;spacingRight=4;whiteSpace=wrap;overflow=hidden;rotatable=0;fontColor=#000000;" vertex="1" parent="JQ5LjAgzly_YhfliwwbK-99">
          <mxGeometry y="90" width="180" as="geometry" />
        </mxCell>
        <mxCell id="JQ5LjAgzly_YhfliwwbK-108" value="Left click on &quot;Load a Map&quot;" style="text;html=1;align=center;verticalAlign=middle;resizable=0;points=[];autosize=1;strokeColor=none;fillColor=none;rotation=-90;" vertex="1" parent="1">
          <mxGeometry x="-20" y="400" width="130" height="20" as="geometry" />
        </mxCell>
        <mxCell id="JQ5LjAgzly_YhfliwwbK-114" value="Left click on &quot;Load a Map&quot;" style="text;html=1;align=center;verticalAlign=middle;resizable=0;points=[];autosize=1;strokeColor=none;fillColor=none;rotation=-90;" vertex="1" parent="1">
          <mxGeometry x="1040" y="365" width="130" height="20" as="geometry" />
        </mxCell>
        <mxCell id="JQ5LjAgzly_YhfliwwbK-120" style="edgeStyle=none;rounded=0;orthogonalLoop=1;jettySize=auto;html=1;exitX=0.5;exitY=1;exitDx=0;exitDy=0;entryX=0.5;entryY=0;entryDx=0;entryDy=0;" edge="1" parent="1" source="JQ5LjAgzly_YhfliwwbK-70" target="JQ5LjAgzly_YhfliwwbK-99">
          <mxGeometry relative="1" as="geometry" />
        </mxCell>
        <mxCell id="JQ5LjAgzly_YhfliwwbK-121" value="Left click on &quot;Modify request&quot;" style="text;html=1;align=center;verticalAlign=middle;resizable=0;points=[];autosize=1;strokeColor=none;fillColor=none;rotation=-90;" vertex="1" parent="1">
          <mxGeometry x="30" y="900" width="140" height="20" as="geometry" />
        </mxCell>
        <mxCell id="JQ5LjAgzly_YhfliwwbK-123" value="&lt;div&gt;Left click on &quot;Load a request&quot;&lt;/div&gt;" style="text;html=1;align=center;verticalAlign=middle;resizable=0;points=[];autosize=1;strokeColor=none;fillColor=none;rotation=-15;" vertex="1" parent="1">
          <mxGeometry x="320" y="640" width="140" height="20" as="geometry" />
        </mxCell>
        <mxCell id="JQ5LjAgzly_YhfliwwbK-125" value="Left click on &quot;Cancel&quot;" style="text;html=1;align=center;verticalAlign=middle;resizable=0;points=[];autosize=1;strokeColor=none;fillColor=none;rotation=-90;" vertex="1" parent="1">
          <mxGeometry x="90" y="920" width="110" height="20" as="geometry" />
        </mxCell>
        <mxCell id="JQ5LjAgzly_YhfliwwbK-127" value="Add new request" style="swimlane;fontStyle=1;align=center;verticalAlign=middle;childLayout=stackLayout;horizontal=1;startSize=30;horizontalStack=0;resizeParent=0;resizeLast=1;container=0;fontColor=#000000;collapsible=0;rounded=1;arcSize=30;strokeColor=#ff0000;fillColor=#ffffc0;swimlaneFillColor=#ffffc0;dropTarget=0;" vertex="1" parent="1">
          <mxGeometry x="450" y="1000" width="180" height="90" as="geometry" />
        </mxCell>
        <mxCell id="JQ5LjAgzly_YhfliwwbK-128" value="&lt;div&gt;Entry /&lt;br&gt;&lt;/div&gt;&lt;div&gt;Do /&lt;/div&gt;&lt;div&gt;Exit/&lt;/div&gt;&lt;div&gt;&lt;br&gt;&lt;/div&gt;&lt;div&gt;&lt;br&gt;&lt;/div&gt;" style="text;html=1;strokeColor=none;fillColor=none;align=center;verticalAlign=middle;spacingLeft=4;spacingRight=4;whiteSpace=wrap;overflow=hidden;rotatable=0;fontColor=#000000;" vertex="1" parent="JQ5LjAgzly_YhfliwwbK-127">
          <mxGeometry y="30" width="180" height="60" as="geometry" />
        </mxCell>
        <mxCell id="JQ5LjAgzly_YhfliwwbK-129" value="&lt;div&gt;Entry /&lt;br&gt;&lt;/div&gt;&lt;div&gt;Do /&lt;/div&gt;&lt;div&gt;Exit/&lt;/div&gt;&lt;div&gt;&lt;br&gt;&lt;/div&gt;&lt;div&gt;&lt;br&gt;&lt;/div&gt;" style="text;html=1;strokeColor=none;fillColor=none;align=center;verticalAlign=middle;spacingLeft=4;spacingRight=4;whiteSpace=wrap;overflow=hidden;rotatable=0;fontColor=#000000;" vertex="1" parent="JQ5LjAgzly_YhfliwwbK-127">
          <mxGeometry y="90" width="180" as="geometry" />
        </mxCell>
        <mxCell id="JQ5LjAgzly_YhfliwwbK-130" style="edgeStyle=none;rounded=0;orthogonalLoop=1;jettySize=auto;html=1;exitX=1;exitY=0.25;exitDx=0;exitDy=0;entryX=0;entryY=0.25;entryDx=0;entryDy=0;" edge="1" parent="1" source="JQ5LjAgzly_YhfliwwbK-100" target="JQ5LjAgzly_YhfliwwbK-128">
          <mxGeometry relative="1" as="geometry" />
        </mxCell>
        <mxCell id="JQ5LjAgzly_YhfliwwbK-135" value="Left click on Add new request" style="edgeLabel;html=1;align=center;verticalAlign=middle;resizable=0;points=[];" vertex="1" connectable="0" parent="JQ5LjAgzly_YhfliwwbK-130">
          <mxGeometry x="-0.0886" y="-1" relative="1" as="geometry">
            <mxPoint as="offset" />
          </mxGeometry>
        </mxCell>
        <mxCell id="JQ5LjAgzly_YhfliwwbK-131" style="edgeStyle=none;rounded=0;orthogonalLoop=1;jettySize=auto;html=1;exitX=0;exitY=0.75;exitDx=0;exitDy=0;entryX=1;entryY=0.75;entryDx=0;entryDy=0;startArrow=none;" edge="1" parent="1" source="JQ5LjAgzly_YhfliwwbK-132" target="JQ5LjAgzly_YhfliwwbK-100">
          <mxGeometry relative="1" as="geometry" />
        </mxCell>
        <mxCell id="JQ5LjAgzly_YhfliwwbK-132" value="Left click on Cancel" style="text;html=1;align=center;verticalAlign=middle;resizable=0;points=[];autosize=1;strokeColor=none;fillColor=none;" vertex="1" parent="1">
          <mxGeometry x="275" y="1060" width="100" height="20" as="geometry" />
        </mxCell>
        <mxCell id="JQ5LjAgzly_YhfliwwbK-134" value="" style="edgeStyle=none;rounded=0;orthogonalLoop=1;jettySize=auto;html=1;exitX=0;exitY=0.75;exitDx=0;exitDy=0;entryX=1;entryY=0.75;entryDx=0;entryDy=0;endArrow=none;" edge="1" parent="1" source="JQ5LjAgzly_YhfliwwbK-128" target="JQ5LjAgzly_YhfliwwbK-132">
          <mxGeometry relative="1" as="geometry">
            <mxPoint x="450" y="1075" as="sourcePoint" />
            <mxPoint x="200" y="1075" as="targetPoint" />
          </mxGeometry>
        </mxCell>
        <mxCell id="JQ5LjAgzly_YhfliwwbK-144" style="edgeStyle=none;rounded=0;orthogonalLoop=1;jettySize=auto;html=1;exitX=0.75;exitY=0;exitDx=0;exitDy=0;entryX=0.75;entryY=1;entryDx=0;entryDy=0;" edge="1" parent="1" source="JQ5LjAgzly_YhfliwwbK-139" target="JQ5LjAgzly_YhfliwwbK-100">
          <mxGeometry relative="1" as="geometry" />
        </mxCell>
        <mxCell id="JQ5LjAgzly_YhfliwwbK-145" value="&lt;div&gt;Left click on Cancel&lt;/div&gt;" style="edgeLabel;html=1;align=center;verticalAlign=middle;resizable=0;points=[];rotation=-90;" vertex="1" connectable="0" parent="JQ5LjAgzly_YhfliwwbK-144">
          <mxGeometry x="0.2361" y="-3" relative="1" as="geometry">
            <mxPoint y="28" as="offset" />
          </mxGeometry>
        </mxCell>
        <mxCell id="JQ5LjAgzly_YhfliwwbK-139" value="Delete requests" style="swimlane;fontStyle=1;align=center;verticalAlign=middle;childLayout=stackLayout;horizontal=1;startSize=30;horizontalStack=0;resizeParent=0;resizeLast=1;container=0;fontColor=#000000;collapsible=0;rounded=1;arcSize=30;strokeColor=#ff0000;fillColor=#ffffc0;swimlaneFillColor=#ffffc0;dropTarget=0;" vertex="1" parent="1">
          <mxGeometry x="20" y="1330" width="180" height="90" as="geometry" />
        </mxCell>
        <mxCell id="JQ5LjAgzly_YhfliwwbK-140" value="&lt;div&gt;Entry /&lt;br&gt;&lt;/div&gt;&lt;div&gt;Do /&lt;/div&gt;&lt;div&gt;Exit/&lt;/div&gt;&lt;div&gt;&lt;br&gt;&lt;/div&gt;&lt;div&gt;&lt;br&gt;&lt;/div&gt;" style="text;html=1;strokeColor=none;fillColor=none;align=center;verticalAlign=middle;spacingLeft=4;spacingRight=4;whiteSpace=wrap;overflow=hidden;rotatable=0;fontColor=#000000;" vertex="1" parent="JQ5LjAgzly_YhfliwwbK-139">
          <mxGeometry y="30" width="180" height="60" as="geometry" />
        </mxCell>
        <mxCell id="JQ5LjAgzly_YhfliwwbK-141" value="&lt;div&gt;Entry /&lt;br&gt;&lt;/div&gt;&lt;div&gt;Do /&lt;/div&gt;&lt;div&gt;Exit/&lt;/div&gt;&lt;div&gt;&lt;br&gt;&lt;/div&gt;&lt;div&gt;&lt;br&gt;&lt;/div&gt;" style="text;html=1;strokeColor=none;fillColor=none;align=center;verticalAlign=middle;spacingLeft=4;spacingRight=4;whiteSpace=wrap;overflow=hidden;rotatable=0;fontColor=#000000;" vertex="1" parent="JQ5LjAgzly_YhfliwwbK-139">
          <mxGeometry y="90" width="180" as="geometry" />
        </mxCell>
        <mxCell id="JQ5LjAgzly_YhfliwwbK-143" style="edgeStyle=none;rounded=0;orthogonalLoop=1;jettySize=auto;html=1;exitX=0.25;exitY=1;exitDx=0;exitDy=0;entryX=0.25;entryY=0;entryDx=0;entryDy=0;" edge="1" parent="1" source="JQ5LjAgzly_YhfliwwbK-100" target="JQ5LjAgzly_YhfliwwbK-139">
          <mxGeometry relative="1" as="geometry" />
        </mxCell>
        <mxCell id="JQ5LjAgzly_YhfliwwbK-146" value="&lt;div&gt;Left Click on Delete Requests&lt;/div&gt;" style="edgeLabel;html=1;align=center;verticalAlign=middle;resizable=0;points=[];rotation=-90;" vertex="1" connectable="0" parent="JQ5LjAgzly_YhfliwwbK-143">
          <mxGeometry x="-0.1325" relative="1" as="geometry">
            <mxPoint as="offset" />
          </mxGeometry>
        </mxCell>
      </root>
    </mxGraphModel>
  </diagram>
</mxfile>
